<?xml version="1.0" encoding="UTF-8"?>
<!DOCTYPE svg PUBLIC "-//W3C//DTD SVG 1.1//EN" "http://www.w3.org/Graphics/SVG/1.1/DTD/svg11.dtd">
<svg version="1.1" xmlns="http://www.w3.org/2000/svg" xmlns:xlink="http://www.w3.org/1999/xlink" x="0" y="0" width="612" height="612" viewBox="0, 0, 612, 612">
  <g id="Layer_1">
    <path d="M379.603,278.62 L307.24,278.62 L307.24,225.807 C307.24,209.606 323.998,205.852 331.823,205.852 L378.565,205.852 L378.565,134.584 L324.991,134.298 C251.897,134.298 235.211,187.443 235.211,221.515 L235.211,278.62 L182.169,278.62 L182.169,352.055 L235.211,352.055 L235.211,550.298 L307.24,550.298 L307.24,352.055 L368.432,352.055 z M379.603,278.62" fill="#000000"/>
    <path d="M306.5,578.5 C156.279,578.5 34.5,456.721 34.5,306.5 C34.5,156.279 156.279,34.5 306.5,34.5 C456.721,34.5 578.5,156.279 578.5,306.5 C578.5,456.721 456.721,578.5 306.5,578.5" fill-opacity="0" stroke="#000000" stroke-width="69"/>
  </g>
</svg>
