<?xml version="1.0" encoding="UTF-8"?>
<!DOCTYPE svg PUBLIC "-//W3C//DTD SVG 1.1//EN" "http://www.w3.org/Graphics/SVG/1.1/DTD/svg11.dtd">
<svg version="1.1" xmlns="http://www.w3.org/2000/svg" xmlns:xlink="http://www.w3.org/1999/xlink" x="0" y="0" width="612" height="612" viewBox="0, 0, 612, 612">
  <defs>
    <clipPath id="Clip_1">
      <path d="M0,-0 L616.074,-0 L616.074,617 L0,617 z"/>
    </clipPath>
  </defs>
  <g id="Layer_1">
    <path d="M302.925,364.691 C336.462,364.691 363.773,337.441 363.773,303.858 C363.773,290.639 359.473,278.399 352.298,268.408 C341.236,253.108 323.258,243.071 302.925,243.071 C282.667,243.071 264.675,253.047 253.628,268.408 C246.391,278.399 242.153,290.639 242.092,303.858 C242.092,337.441 269.402,364.691 302.925,364.691 z M302.925,364.691" fill="#000000"/>
    <g clip-path="url(#Clip_1)">
      <path d="M439.35,231.313 L439.35,172.266 L431.638,172.266 L380.242,172.451 L380.488,231.498 z M439.35,231.313" fill="#000000"/>
      <path d="M305.4,-0 C136.511,-0 -0.926,137.452 -0.926,306.34 C-0.926,475.291 136.511,612.727 305.4,612.727 C474.35,612.727 611.802,475.291 611.802,306.34 C611.802,137.452 474.35,-0 305.4,-0 z M479.656,270.601 L479.656,413.282 C479.656,450.41 449.469,480.597 412.295,480.597 L198.52,480.597 C161.392,480.597 131.205,450.41 131.205,413.282 L131.205,199.507 C131.205,162.333 161.392,132.146 198.52,132.146 L412.295,132.146 C449.469,132.146 479.656,162.333 479.656,199.507 z M479.656,270.601" fill="#000000"/>
    </g>
    <path d="M397.479,303.858 C397.479,355.97 355.113,398.397 302.925,398.397 C250.813,398.397 208.447,355.97 208.447,303.858 C208.447,291.358 210.956,279.347 215.378,268.408 L163.802,268.408 L163.802,409.933 C163.802,428.232 178.612,442.996 196.911,442.996 L408.954,442.996 C427.237,442.996 442.063,428.232 442.063,409.933 L442.063,268.408 L390.486,268.408 C394.908,279.347 397.479,291.358 397.479,303.858 z M397.479,303.858" fill="#000000"/>
  </g>
</svg>
