<?xml version="1.0" encoding="UTF-8"?>
<!DOCTYPE svg PUBLIC "-//W3C//DTD SVG 1.1//EN" "http://www.w3.org/Graphics/SVG/1.1/DTD/svg11.dtd">
<svg version="1.1" xmlns="http://www.w3.org/2000/svg" xmlns:xlink="http://www.w3.org/1999/xlink" x="0" y="0" width="612" height="612" viewBox="0, 0, 612, 612">
  <g id="Layer_1">
    <path d="M305,-0 C473.992,0 611,137.008 611,306 C611,474.992 473.992,612 305,612 C136.008,612 -1,474.992 -1,306 C-1,137.008 136.008,0 305,0 z M395.627,229.612 C356.77,229.612 339.431,251.001 329.708,265.967 L329.708,266.683 L329.224,266.683 C329.36,266.445 329.571,266.206 329.708,265.967 L329.708,234.78 L256.54,234.78 C257.529,255.419 256.54,454.774 256.54,454.774 L329.708,454.774 L329.708,331.914 C329.708,325.307 330.185,318.782 332.128,314.098 C337.433,300.939 349.44,287.329 369.629,287.329 C396.132,287.329 406.68,307.518 406.68,337.083 L406.68,454.774 L479.813,454.774 L479.813,328.607 C479.813,261.065 443.751,229.612 395.627,229.612 z M216.114,234.78 L143.001,234.78 L143.001,454.774 L216.114,454.774 L216.114,234.78 z M180.052,128.748 C155.015,128.748 138.658,145.181 138.658,166.754 C138.658,187.877 154.531,204.759 179.091,204.759 L179.541,204.759 C205.062,204.759 220.935,187.877 220.935,166.754 C220.451,145.181 205.062,128.748 180.052,128.748 z" fill="#000000"/>
  </g>
</svg>
