<svg style="position: absolute; width: 0; height: 0; overflow: hidden;" version="1.1" xmlns="http://www.w3.org/2000/svg" xmlns:xlink="http://www.w3.org/1999/xlink">
<defs>
<symbol id="icon-bookmark" viewBox="0 0 20 20">
<title>bookmark</title>
<path class="path1" d="M14 2v17l-4-4-4 4v-17c0-0.553 0.585-1.020 1-1h6c0.689-0.020 1 0.447 1 1z"></path>
</symbol>
<symbol id="icon-email" viewBox="0 0 24 24">
<title>email</title>
<path d="M12.042 23.648c-7.813 0-12.042-4.876-12.042-11.171 0-6.727 4.762-12.125 13.276-12.125 6.214 0 10.724 4.038 10.724 9.601 0 8.712-10.33 11.012-9.812 6.042-.71 1.108-1.854 2.354-4.053 2.354-2.516 0-4.08-1.842-4.08-4.807 0-4.444 2.921-8.199 6.379-8.199 1.659 0 2.8.876 3.277 2.221l.464-1.632h2.338c-.244.832-2.321 8.527-2.321 8.527-.648 2.666 1.35 2.713 3.122 1.297 3.329-2.58 3.501-9.327-.998-12.141-4.821-2.891-15.795-1.102-15.795 8.693 0 5.611 3.95 9.381 9.829 9.381 3.436 0 5.542-.93 7.295-1.948l1.177 1.698c-1.711.966-4.461 2.209-8.78 2.209zm-2.344-14.305c-.715 1.34-1.177 3.076-1.177 4.424 0 3.61 3.522 3.633 5.252.239.712-1.394 1.171-3.171 1.171-4.529 0-2.917-3.495-3.434-5.246-.134z" />
</symbol>
<symbol id="icon-insta" viewBox="0 0 1000 1000">
<title>instagram</title>
<path d="M295.42,6c-53.2,2.51-89.53,11-121.29,23.48-32.87,12.81-60.73,30-88.45,57.82S40.89,143,28.17,175.92c-12.31,31.83-20.65,68.19-23,121.42S2.3,367.68,2.56,503.46,3.42,656.26,6,709.6c2.54,53.19,11,89.51,23.48,121.28,12.83,32.87,30,60.72,57.83,88.45S143,964.09,176,976.83c31.8,12.29,68.17,20.67,121.39,23s70.35,2.87,206.09,2.61,152.83-.86,206.16-3.39S799.1,988,830.88,975.58c32.87-12.86,60.74-30,88.45-57.84S964.1,862,976.81,829.06c12.32-31.8,20.69-68.17,23-121.35,2.33-53.37,2.88-70.41,2.62-206.17s-.87-152.78-3.4-206.1-11-89.53-23.47-121.32c-12.85-32.87-30-60.7-57.82-88.45S862,40.87,829.07,28.19c-31.82-12.31-68.17-20.7-121.39-23S637.33,2.3,501.54,2.56,348.75,3.4,295.42,6m5.84,903.88c-48.75-2.12-75.22-10.22-92.86-17-23.36-9-40-19.88-57.58-37.29s-28.38-34.11-37.5-57.42c-6.85-17.64-15.1-44.08-17.38-92.83-2.48-52.69-3-68.51-3.29-202s.22-149.29,2.53-202c2.08-48.71,10.23-75.21,17-92.84,9-23.39,19.84-40,37.29-57.57s34.1-28.39,57.43-37.51c17.62-6.88,44.06-15.06,92.79-17.38,52.73-2.5,68.53-3,202-3.29s149.31.21,202.06,2.53c48.71,2.12,75.22,10.19,92.83,17,23.37,9,40,19.81,57.57,37.29s28.4,34.07,37.52,57.45c6.89,17.57,15.07,44,17.37,92.76,2.51,52.73,3.08,68.54,3.32,202s-.23,149.31-2.54,202c-2.13,48.75-10.21,75.23-17,92.89-9,23.35-19.85,40-37.31,57.56s-34.09,28.38-57.43,37.5c-17.6,6.87-44.07,15.07-92.76,17.39-52.73,2.48-68.53,3-202.05,3.29s-149.27-.25-202-2.53m407.6-674.61a60,60,0,1,0,59.88-60.1,60,60,0,0,0-59.88,60.1M245.77,503c.28,141.8,115.44,256.49,257.21,256.22S759.52,643.8,759.25,502,643.79,245.48,502,245.76,245.5,361.22,245.77,503m90.06-.18a166.67,166.67,0,1,1,167,166.34,166.65,166.65,0,0,1-167-166.34" transform="translate(-2.5 -2.5)"/>
</symbol>
<symbol id="icon-insta-round" viewBox="0 0 612 612">
<title>instagram-round</title>
<g id="Layer_1">
    <path d="M302.925,364.691 C336.462,364.691 363.773,337.441 363.773,303.858 C363.773,290.639 359.473,278.399 352.298,268.408 C341.236,253.108 323.258,243.071 302.925,243.071 C282.667,243.071 264.675,253.047 253.628,268.408 C246.391,278.399 242.153,290.639 242.092,303.858 C242.092,337.441 269.402,364.691 302.925,364.691 z M302.925,364.691"/>
    <g clip-path="url(#Clip_1)">
      <path d="M439.35,231.313 L439.35,172.266 L431.638,172.266 L380.242,172.451 L380.488,231.498 z M439.35,231.313" />
      <path d="M305.4,-0 C136.511,-0 -0.926,137.452 -0.926,306.34 C-0.926,475.291 136.511,612.727 305.4,612.727 C474.35,612.727 611.802,475.291 611.802,306.34 C611.802,137.452 474.35,-0 305.4,-0 z M479.656,270.601 L479.656,413.282 C479.656,450.41 449.469,480.597 412.295,480.597 L198.52,480.597 C161.392,480.597 131.205,450.41 131.205,413.282 L131.205,199.507 C131.205,162.333 161.392,132.146 198.52,132.146 L412.295,132.146 C449.469,132.146 479.656,162.333 479.656,199.507 z M479.656,270.601"/>
    </g>
    <path d="M397.479,303.858 C397.479,355.97 355.113,398.397 302.925,398.397 C250.813,398.397 208.447,355.97 208.447,303.858 C208.447,291.358 210.956,279.347 215.378,268.408 L163.802,268.408 L163.802,409.933 C163.802,428.232 178.612,442.996 196.911,442.996 L408.954,442.996 C427.237,442.996 442.063,428.232 442.063,409.933 L442.063,268.408 L390.486,268.408 C394.908,279.347 397.479,291.358 397.479,303.858 z M397.479,303.858" />
  </g>
</symbol>
<symbol id="icon-linkedin" viewBox="0 0 612 612">
<title>linkedin</title>
<path d="M305,-0 C473.992,0 611,137.008 611,306 C611,474.992 473.992,612 305,612 C136.008,612 -1,474.992 -1,306 C-1,137.008 136.008,0 305,0 z M395.627,229.612 C356.77,229.612 339.431,251.001 329.708,265.967 L329.708,266.683 L329.224,266.683 C329.36,266.445 329.571,266.206 329.708,265.967 L329.708,234.78 L256.54,234.78 C257.529,255.419 256.54,454.774 256.54,454.774 L329.708,454.774 L329.708,331.914 C329.708,325.307 330.185,318.782 332.128,314.098 C337.433,300.939 349.44,287.329 369.629,287.329 C396.132,287.329 406.68,307.518 406.68,337.083 L406.68,454.774 L479.813,454.774 L479.813,328.607 C479.813,261.065 443.751,229.612 395.627,229.612 z M216.114,234.78 L143.001,234.78 L143.001,454.774 L216.114,454.774 L216.114,234.78 z M180.052,128.748 C155.015,128.748 138.658,145.181 138.658,166.754 C138.658,187.877 154.531,204.759 179.091,204.759 L179.541,204.759 C205.062,204.759 220.935,187.877 220.935,166.754 C220.451,145.181 205.062,128.748 180.052,128.748 z"/>
</symbol>
<symbol id="icon-twitter" viewBox="0 0 612 612">
<title>twitter</title>
<path d="M442.574,236.521 C442.678,239.525 442.735,242.593 442.733,245.671 C442.666,338.713 371.766,445.802 242.197,445.434 C202.416,445.321 165.403,433.616 134.25,413.481 C139.783,414.161 145.375,414.533 151.042,414.549 C184.076,414.642 214.418,403.48 238.557,384.645 C207.745,383.957 181.769,363.548 172.826,335.528 C177.09,336.386 181.481,336.818 186.057,336.831 C192.436,336.849 198.694,336.033 204.596,334.417 C172.397,327.883 148.107,299.362 148.131,265.237 C148.132,264.925 148.132,264.633 148.195,264.325 C157.634,269.651 168.54,272.813 180.096,273.197 C161.201,260.571 148.751,238.936 148.769,214.503 C148.778,201.623 152.285,189.539 158.316,179.141 C192.998,221.854 244.927,250.043 303.408,253.149 C302.21,247.972 301.613,242.623 301.617,237.078 C301.645,198.207 333.208,166.757 372.091,166.867 C392.366,166.925 410.648,175.529 423.455,189.213 C439.528,186.132 454.646,180.338 468.255,172.258 C462.943,188.724 451.796,202.482 437.229,211.164 C451.498,209.525 465.105,205.773 477.677,200.216 C468.288,214.272 456.292,226.624 442.574,236.521 z M306.18,0.153 C137.495,-0.326 0.123,136.572 0,305.257 C-0.122,474.005 137.05,611.667 305.736,612.145 C474.485,612.624 611.872,475.742 611.995,306.994 C612.118,138.309 474.929,0.632 306.18,0.153"/>
</symbol>
<symbol id="icon-facebook" viewBox="0 0 612 612">
<title>facebook</title>
<g id="Layer_1">
    <path d="M379.603,278.62 L307.24,278.62 L307.24,225.807 C307.24,209.606 323.998,205.852 331.823,205.852 L378.565,205.852 L378.565,134.584 L324.991,134.298 C251.897,134.298 235.211,187.443 235.211,221.515 L235.211,278.62 L182.169,278.62 L182.169,352.055 L235.211,352.055 L235.211,550.298 L307.24,550.298 L307.24,352.055 L368.432,352.055 z M379.603,278.62" />
    <path d="M306.5,578.5 C156.279,578.5 34.5,456.721 34.5,306.5 C34.5,156.279 156.279,34.5 306.5,34.5 C456.721,34.5 578.5,156.279 578.5,306.5 C578.5,456.721 456.721,578.5 306.5,578.5" fill-opacity="0" stroke-width="69"/>
  </g>
</symbol>
<symbol id="icon-github" viewBox="0 0 24 24">
<title>github</title>
<path d="M12 0c-6.626 0-12 5.373-12 12 0 5.302 3.438 9.8 8.207 11.387.599.111.793-.261.793-.577v-2.234c-3.338.726-4.033-1.416-4.033-1.416-.546-1.387-1.333-1.756-1.333-1.756-1.089-.745.083-.729.083-.729 1.205.084 1.839 1.237 1.839 1.237 1.07 1.834 2.807 1.304 3.492.997.107-.775.418-1.305.762-1.604-2.665-.305-5.467-1.334-5.467-5.931 0-1.311.469-2.381 1.236-3.221-.124-.303-.535-1.524.117-3.176 0 0 1.008-.322 3.301 1.23.957-.266 1.983-.399 3.003-.404 1.02.005 2.047.138 3.006.404 2.291-1.552 3.297-1.23 3.297-1.23.653 1.653.242 2.874.118 3.176.77.84 1.235 1.911 1.235 3.221 0 4.609-2.807 5.624-5.479 5.921.43.372.823 1.102.823 2.222v3.293c0 .319.192.694.801.576 4.765-1.589 8.199-6.086 8.199-11.386 0-6.627-5.373-12-12-12z"/>
</symbol>
</defs>
</svg>