<?xml version="1.0" encoding="UTF-8"?>
<!DOCTYPE svg PUBLIC "-//W3C//DTD SVG 1.1//EN" "http://www.w3.org/Graphics/SVG/1.1/DTD/svg11.dtd">
<svg version="1.1" xmlns="http://www.w3.org/2000/svg" xmlns:xlink="http://www.w3.org/1999/xlink" x="0" y="0" width="612" height="612" viewBox="0, 0, 612, 612">
  <g id="Layer_1">
    <path d="M442.574,236.521 C442.678,239.525 442.735,242.593 442.733,245.671 C442.666,338.713 371.766,445.802 242.197,445.434 C202.416,445.321 165.403,433.616 134.25,413.481 C139.783,414.161 145.375,414.533 151.042,414.549 C184.076,414.642 214.418,403.48 238.557,384.645 C207.745,383.957 181.769,363.548 172.826,335.528 C177.09,336.386 181.481,336.818 186.057,336.831 C192.436,336.849 198.694,336.033 204.596,334.417 C172.397,327.883 148.107,299.362 148.131,265.237 C148.132,264.925 148.132,264.633 148.195,264.325 C157.634,269.651 168.54,272.813 180.096,273.197 C161.201,260.571 148.751,238.936 148.769,214.503 C148.778,201.623 152.285,189.539 158.316,179.141 C192.998,221.854 244.927,250.043 303.408,253.149 C302.21,247.972 301.613,242.623 301.617,237.078 C301.645,198.207 333.208,166.757 372.091,166.867 C392.366,166.925 410.648,175.529 423.455,189.213 C439.528,186.132 454.646,180.338 468.255,172.258 C462.943,188.724 451.796,202.482 437.229,211.164 C451.498,209.525 465.105,205.773 477.677,200.216 C468.288,214.272 456.292,226.624 442.574,236.521 z M306.18,0.153 C137.495,-0.326 0.123,136.572 0,305.257 C-0.122,474.005 137.05,611.667 305.736,612.145 C474.485,612.624 611.872,475.742 611.995,306.994 C612.118,138.309 474.929,0.632 306.18,0.153" fill="#000000"/>
  </g>
</svg>
